# xmcd
#
# Track frame offsets: 
#        150
#        13229
#        23914
#        35987
#        47011
#        58206
#        66648
#        77652
#        97733
#        110872
#        123195
#        134972
#        144322
#        155318
#        169370
#        179497
#        189351
#        200160
#        211312
#        224164
#        237897
#        249345
#        261709
#
# Disc length: 3676 seconds
#
# Revision: 0
# Processed by: cddbd v1.5.2PL0 Copyright (c) Steve Scherf et al.
# Submitted via: ExactAudioCopy v1.0b1
#
DISCID=710e5a17
DTITLE=Screamin' Jay Hawkins - At Home With
DYEAR=1958
DGENRE=Blues
TTITLE0=Orange Colored Sky
TTITLE1=Hong Kong
TTITLE2=Temptation
TTITLE3=I Love Paris
TTITLE4=I Put A Spell On You
TTITLE5=Swing Low, Sweet Chariot
TTITLE6=Yellow Coat
TTITLE7=Ol' Man River
TTITLE8=If You Are But A Dream
TTITLE9=Take Me Back To My Boots And Saddle
TTITLE10=Deep Purple
TTITLE11=You Made Me Love You (I Didn't Want To Do It)
TTITLE12=Little Demon
TTITLE13=Alligator Wine
TTITLE14=Frenzy
TTITLE15=Person To Person
TTITLE16=There's Something Wrong With You
TTITLE17=You Ain't Foolin' Me
TTITLE18=Darling Please Forgive Me
TTITLE19=Little Demon (Alternate Take)
TTITLE20=I Put A Spell On You (Alternate Take)
TTITLE21=There's Something Wrong With You (Alternate Take)
TTITLE22=Alligator Wine (Alternate Take)
EXTD=
EXTT0=
EXTT1=
EXTT2=
EXTT3=
EXTT4=
EXTT5=
EXTT6=
EXTT7=
EXTT8=
EXTT9=
EXTT10=
EXTT11=
EXTT12=
EXTT13=
EXTT14=
EXTT15=
EXTT16=
EXTT17=
EXTT18=
EXTT19=
EXTT20=
EXTT21=
EXTT22=
PLAYORDER=
